<mxfile host="app.diagrams.net" agent="Mozilla/5.0 (Windows NT 10.0; Win64; x64; rv:136.0) Gecko/20100101 Firefox/136.0" version="26.1.1">
  <diagram name="Page-1" id="BC0-3vWRWkZNQQW_WffX">
    <mxGraphModel dx="2877" dy="1537" grid="1" gridSize="10" guides="1" tooltips="1" connect="1" arrows="1" fold="1" page="0" pageScale="1" pageWidth="850" pageHeight="1100" math="0" shadow="0">
      <root>
        <mxCell id="0" />
        <mxCell id="1" parent="0" />
        <mxCell id="hPd7pWXpVeVF4-XowLYw-2" value="Grand-papi" style="ellipse;whiteSpace=wrap;html=1;align=center;" vertex="1" parent="1">
          <mxGeometry x="240" y="80" width="120" height="120" as="geometry" />
        </mxCell>
        <mxCell id="hPd7pWXpVeVF4-XowLYw-3" value="Grand-papi" style="ellipse;whiteSpace=wrap;html=1;align=center;" vertex="1" parent="1">
          <mxGeometry x="40" y="240" width="120" height="120" as="geometry" />
        </mxCell>
        <mxCell id="hPd7pWXpVeVF4-XowLYw-4" value="Grand-papi" style="ellipse;whiteSpace=wrap;html=1;align=center;" vertex="1" parent="1">
          <mxGeometry x="440" y="240" width="120" height="120" as="geometry" />
        </mxCell>
        <mxCell id="hPd7pWXpVeVF4-XowLYw-5" value="Grand-papi" style="ellipse;whiteSpace=wrap;html=1;align=center;fontStyle=1" vertex="1" parent="1">
          <mxGeometry x="-40" y="400" width="120" height="120" as="geometry" />
        </mxCell>
        <mxCell id="hPd7pWXpVeVF4-XowLYw-6" value="Grand-papi" style="ellipse;whiteSpace=wrap;html=1;align=center;fontStyle=1" vertex="1" parent="1">
          <mxGeometry x="120" y="400" width="120" height="120" as="geometry" />
        </mxCell>
        <mxCell id="hPd7pWXpVeVF4-XowLYw-7" value="Grand-papi" style="ellipse;whiteSpace=wrap;html=1;align=center;fontStyle=1" vertex="1" parent="1">
          <mxGeometry x="360" y="410" width="120" height="120" as="geometry" />
        </mxCell>
        <mxCell id="hPd7pWXpVeVF4-XowLYw-8" value="Grand-papi" style="ellipse;whiteSpace=wrap;html=1;align=center;fontStyle=1" vertex="1" parent="1">
          <mxGeometry x="520" y="400" width="120" height="120" as="geometry" />
        </mxCell>
      </root>
    </mxGraphModel>
  </diagram>
</mxfile>
